# xmcd CD database file
#
# Track frame offsets:
#	183
#	22123
#	45908
#	88853
#	110038
#	153120
#	192005
#
# Disc length: 2891 seconds
#
# Revision: 0
# Processed by: cddbd v1.5.1PL2 Copyright (c) Steve Scherf et al.
# Submitted via: CDex 1.51
#
DISCID=4e0b4907
DTITLE=Vic Dickenson - Vic Dickenson Septet -disk2
DYEAR=1954
DGENRE=Jazz
TTITLE0=When You And I Were Young, Maggie
TTITLE1=You Brought ANew Kind Of Love To Me
TTITLE2=Everybody Loves My Baby
TTITLE3=Nice Work If You Can Get It
TTITLE4=Old Fashioned Love
TTITLE5=Suspension Blues
TTITLE6=Runnin' Wild
EXTD=YEAR: 1954
EXTT0=
EXTT1=
EXTT2=
EXTT3=
EXTT4=
EXTT5=
EXTT6=
PLAYORDER=
